<svg width="27" height="28" viewBox="0 0 27 28" fill="none" xmlns="http://www.w3.org/2000/svg">
<path d="M11.665 1.21799C12.3613 -0.387768 14.6386 -0.387768 15.3349 1.21799L16.6963 4.35764C16.9861 5.02584 17.6167 5.48386 18.3418 5.55295L21.748 5.87717C23.4903 6.0433 24.1938 8.209 22.8818 9.36741L20.3164 11.6321C19.7704 12.1142 19.5301 12.8557 19.6885 13.5666L20.4326 16.9065C20.8011 18.5614 19.0834 19.8696 17.6055 19.1408L17.4639 19.0637L14.5166 17.3235C13.8895 16.9534 13.1105 16.9534 12.4834 17.3235L9.53612 19.0637L9.39451 19.1408C7.96433 19.8461 6.30945 18.6437 6.53807 17.0656L6.56737 16.9065L7.31151 13.5666C7.45996 12.9001 7.25787 12.2071 6.78221 11.7258L6.68358 11.6321L4.11815 9.36741C2.8062 8.209 3.50971 6.04331 5.25194 5.87717L8.65819 5.55295C9.33782 5.48819 9.93434 5.08163 10.2451 4.48069L10.3037 4.35764L11.665 1.21799ZM14.1426 1.73557C13.8989 1.17355 13.1011 1.17356 12.8574 1.73557L11.4961 4.87424C11.018 5.97684 9.97856 6.73277 8.78221 6.8469L5.37498 7.17112C4.7655 7.22951 4.51955 7.98741 4.9785 8.3928L7.54393 10.6574C8.44488 11.4529 8.84133 12.6757 8.58006 13.8489L7.8369 17.1887C7.70372 17.7866 8.34845 18.255 8.87596 17.9436L11.8222 16.2043C12.8573 15.5933 14.1427 15.5933 15.1777 16.2043L18.124 17.9436C18.6515 18.255 19.2962 17.7866 19.1631 17.1887L18.4199 13.8489C18.1586 12.6757 18.5551 11.4529 19.456 10.6574L22.0215 8.3928C22.4804 7.9874 22.2345 7.22951 21.625 7.17112L18.2178 6.8469C17.0214 6.73277 15.982 5.97684 15.5039 4.87424L14.1426 1.73557Z" fill="currentColor"/>
<path d="M11.665 1.21799C12.3613 -0.387768 14.6386 -0.387768 15.3349 1.21799L16.6963 4.35764C16.9861 5.02584 17.6167 5.48386 18.3418 5.55295L21.748 5.87717C23.4903 6.0433 24.1938 8.209 22.8818 9.36741L20.3164 11.6321C19.7704 12.1142 19.5301 12.8557 19.6885 13.5666L20.4326 16.9065C20.8011 18.5614 19.0834 19.8696 17.6055 19.1408L17.4639 19.0637L14.5166 17.3235C13.8895 16.9534 13.1105 16.9534 12.4834 17.3235L9.53612 19.0637L9.39451 19.1408C7.96433 19.8461 6.30945 18.6437 6.53807 17.0656L6.56737 16.9065L7.31151 13.5666C7.45996 12.9001 7.25787 12.2071 6.78221 11.7258L6.68358 11.6321L4.11815 9.36741C2.8062 8.209 3.50971 6.04331 5.25194 5.87717L8.65819 5.55295C9.33782 5.48819 9.93434 5.08163 10.2451 4.48069L10.3037 4.35764L11.665 1.21799ZM14.1426 1.73557C13.8989 1.17355 13.1011 1.17356 12.8574 1.73557L11.4961 4.87424C11.018 5.97684 9.97856 6.73277 8.78221 6.8469L5.37498 7.17112C4.7655 7.22951 4.51955 7.98741 4.9785 8.3928L7.54393 10.6574C8.44488 11.4529 8.84133 12.6757 8.58006 13.8489L7.8369 17.1887C7.70372 17.7866 8.34845 18.255 8.87596 17.9436L11.8222 16.2043C12.8573 15.5933 14.1427 15.5933 15.1777 16.2043L18.124 17.9436C18.6515 18.255 19.2962 17.7866 19.1631 17.1887L18.4199 13.8489C18.1586 12.6757 18.5551 11.4529 19.456 10.6574L22.0215 8.3928C22.4804 7.9874 22.2345 7.22951 21.625 7.17112L18.2178 6.8469C17.0214 6.73277 15.982 5.97684 15.5039 4.87424L14.1426 1.73557Z" fill="currentColor"/>
<path d="M12 16.9863V25.9863C12 26.5386 12.4477 26.9863 13 26.9863H14C14.5523 26.9863 15 26.5386 15 25.9863V16.9863" stroke="currentColor" stroke-width="1.3"/>
</svg>
