<svg width="14" height="14" viewBox="0 0 14 14" fill="none" xmlns="http://www.w3.org/2000/svg">
<path d="M7.04561 1.74902C7.05059 1.74903 7.05596 1.74905 7.06171 1.74906L7.12366 1.74925C7.84273 1.7519 11.4872 1.77831 12.4698 2.04248C13.0722 2.20405 13.5465 2.68018 13.7075 3.28458C13.7962 3.61663 13.8579 4.05798 13.901 4.51189L13.9093 4.60281C13.9161 4.67867 13.9224 4.7547 13.9282 4.83045L13.9349 4.92119C13.9924 5.72103 13.9991 6.46951 13.9999 6.63327L14 6.65536C14 6.65717 14 6.66013 14 6.66013V6.67253C14 6.67253 14 6.67549 14 6.67729L13.9999 6.69939C13.9991 6.86933 13.9919 7.66899 13.9282 8.50225L13.921 8.59326L13.9133 8.68436C13.87 9.18536 13.805 9.68285 13.7075 10.0481C13.5465 10.6525 13.0722 11.1287 12.4698 11.2902C11.4545 11.5633 7.59681 11.5824 7.06171 11.5837L7.02051 11.5838C7.01713 11.5838 7.01416 11.5838 7.0116 11.5838L6.99479 11.5838C6.99479 11.5838 6.99093 11.5838 6.98837 11.5838L6.93826 11.5837C6.66784 11.583 5.54885 11.5778 4.37699 11.5376L4.22716 11.5322C4.20217 11.5313 4.17716 11.5304 4.15215 11.5294L4.00215 11.5235L3.8525 11.5172C2.88168 11.4745 1.95606 11.4047 1.53026 11.2902C0.92789 11.1287 0.453554 10.6525 0.292561 10.0481C0.195028 9.68285 0.130006 9.18536 0.0866584 8.68436L0.0790133 8.59326L0.0718315 8.50225C0.0103949 7.69929 0.00147672 6.92753 0.00018214 6.7204L2.74416e-05 6.69074C1.65856e-05 6.68807 7.53889e-06 6.68562 0 6.68337V6.64928C7.53889e-06 6.64704 1.65856e-05 6.64458 2.74416e-05 6.64191L0.00018214 6.61226C0.00135459 6.42467 0.0087801 5.77399 0.0558083 5.05642L0.0618955 4.96641C0.0629452 4.95136 0.0640127 4.93628 0.0650983 4.92119L0.0718315 4.83045C0.0776274 4.7547 0.0838907 4.67867 0.0906591 4.60281L0.0990261 4.51189C0.142097 4.05798 0.203895 3.61663 0.292561 3.28458C0.453554 2.68018 0.92789 2.20405 1.53026 2.04248C1.95606 1.92801 2.88168 1.85818 3.8525 1.81558L4.00215 1.80924L4.15215 1.80332C4.17716 1.80236 4.20217 1.80143 4.22716 1.80051L4.37699 1.79518C5.47405 1.75752 6.52478 1.75055 6.87631 1.74925L6.93826 1.74906C6.94401 1.74905 6.94938 1.74903 6.95436 1.74902H7.04561ZM5.60003 4.55882V8.77384L9.23718 6.66644L5.60003 4.55882Z" fill="white"/>
</svg>
