<svg width="27" height="27" viewBox="0 0 27 27" fill="none" xmlns="http://www.w3.org/2000/svg">
<path d="M24.9373 14.1662V18.4912C24.9373 19.1367 23.6812 20.4588 23.024 20.6034L7.6384 23.9653C7.48868 24.0376 6.9837 23.9989 6.9837 23.831V13.5258L1.25376 14.6955C1.16748 14.7187 1 14.587 1 14.5406V8.88058C1 8.75405 1.33497 8.63527 1.45423 8.59654C3.97409 7.74703 7.81857 7.19962 10.5338 6.61864C14.5889 5.74847 18.6694 4.99966 22.7093 4.05202C23.6533 3.82221 24.7419 4.36962 24.912 5.38181C25.0058 5.94213 25.0388 8.89349 24.9399 9.41507C24.879 9.73009 24.5643 9.68361 24.3131 9.84629C22.184 11.2303 21.9734 14.1791 24.9373 14.1662ZM12.5639 12.5498C12.6096 12.6221 12.8837 12.6505 12.9928 12.6453C13.7261 12.6117 16.8677 11.9791 17.5351 11.708C18.134 11.4627 18.1695 10.7035 17.3321 10.7474C16.6444 10.7836 13.65 11.4317 12.9902 11.677C12.6375 11.8087 12.3508 12.2012 12.5665 12.5498H12.5639ZM17.2484 15.261C16.5632 15.3462 13.4572 15.9788 12.9446 16.2241C12.2873 16.5365 12.3152 17.2518 13.3252 17.1459C14.0839 17.0659 16.8322 16.5133 17.4844 16.2525C18.1365 15.9917 18.2228 15.1422 17.2484 15.2636V15.261Z" fill="currentColor"/>
</svg>
