<svg width="39" height="32" viewBox="0 0 39 32" fill="none" xmlns="http://www.w3.org/2000/svg">
<path d="M38.8969 16.2666V23.1872C38.8969 24.2201 36.8558 26.3356 35.7878 26.5669L10.7871 31.9464C10.5438 32.0621 9.7232 32.0001 9.7232 31.7316V15.2419L0.412349 17.1136C0.272151 17.1508 0 16.9401 0 16.8657V7.80903C0 7.60657 0.544301 7.41651 0.738105 7.35454C4.83273 5.99521 11.0798 5.11929 15.492 4.18966C22.0813 2.79728 28.7119 1.59908 35.2765 0.0827499C36.8104 -0.284971 38.5794 0.590949 38.8557 2.21057C39.0082 3.10715 39.0619 7.82968 38.901 8.66429C38.8021 9.16835 38.2908 9.09398 37.8825 9.35428C34.4229 11.5689 34.0807 16.2873 38.8969 16.2666ZM18.7908 13.6802C18.865 13.7959 19.3103 13.8413 19.4876 13.833C20.6793 13.7793 25.7842 12.7671 26.8687 12.3332C27.8418 11.9407 27.8996 10.726 26.5388 10.7962C25.4213 10.8541 20.5556 11.8911 19.4835 12.2837C18.9103 12.4944 18.4444 13.1224 18.7949 13.6802H18.7908ZM26.4027 18.0184C25.2894 18.1548 20.2422 19.1671 19.4093 19.5596C18.3413 20.0595 18.3867 21.204 20.0278 21.0346C21.2607 20.9065 25.7265 20.0223 26.7862 19.605C27.846 19.1877 27.9861 17.8284 26.4027 18.0226V18.0184Z" fill="black"/>
</svg>
