<svg width="27" height="27" viewBox="0 0 27 27" fill="none" xmlns="http://www.w3.org/2000/svg">
<path d="M22.5 20.4689L22.8151 20.49C23.7268 20.5511 24.5 19.828 24.5 18.9142V18.3349C24.5 17.7826 24.0523 17.3349 23.5 17.3349L24.0275 17.3702C24.8243 17.4236 25.5 16.7917 25.5 15.9931V15.4692C25.5 14.8278 25.0089 14.2932 24.3698 14.2389C24.242 14.2281 24.2347 14.0438 24.3613 14.0229L24.409 14.015C25.0384 13.9111 25.5 13.367 25.5 12.7292V12.1756C25.5 11.159 24.6759 10.3349 23.6593 10.3349H18.3118C17.8899 10.3349 17.5718 9.95165 17.6494 9.53697L18 7.66504L18.0033 7.61974C18.1091 6.16884 17.5786 4.74367 16.55 3.71501C16.1978 3.36287 15.7202 3.16504 15.2222 3.16504H14.4737C14.1704 3.16504 13.8795 3.28552 13.6651 3.49998C13.4506 3.71443 13.3301 4.0053 13.3301 4.30859V7.36119C13.3301 7.8878 13.1915 8.40513 12.9282 8.86119L12.3895 9.79428C11.799 10.817 11.0771 11.7578 10.2421 12.5928C9.76693 13.068 9.5 13.7124 9.5 14.3844V20.8349C9.5 22.4918 10.8431 23.8349 12.5 23.8349H21.29C22.5187 23.8349 23.5225 22.8539 23.5508 21.6255L23.5526 21.546C23.5662 20.9552 23.091 20.4689 22.5 20.4689ZM7.5 12.8349V22.8349C7.5 23.3872 7.05228 23.8349 6.5 23.8349H2.5C1.94772 23.8349 1.5 23.3872 1.5 22.8349V12.8349C1.5 12.2826 1.94772 11.8349 2.5 11.8349H6.5C7.05228 11.8349 7.5 12.2826 7.5 12.8349Z" stroke="currentColor" stroke-width="1.4"/>
</svg>
