<svg width="27" height="27" viewBox="0 0 27 27" fill="none" xmlns="http://www.w3.org/2000/svg">
<path d="M13 12.4118V12.4224M8.55556 12.4118V12.4224M17.4444 12.4118V12.4224M19.6667 5C20.5507 5 21.3986 5.33466 22.0237 5.93037C22.6488 6.52607 23 7.33402 23 8.17647V16.6471C23 17.4895 22.6488 18.2975 22.0237 18.8932C21.3986 19.4889 20.5507 19.8235 19.6667 19.8235H14.1111L8.55556 23V19.8235H6.33333C5.44928 19.8235 4.60143 19.4889 3.97631 18.8932C3.35119 18.2975 3 17.4895 3 16.6471V8.17647C3 7.33402 3.35119 6.52607 3.97631 5.93037C4.60143 5.33466 5.44928 5 6.33333 5H19.6667Z" stroke="currentColor" stroke-width="1.6" stroke-linecap="round" stroke-linejoin="round"/>
</svg>
