<svg width="24" height="24" viewBox="0 0 24 24" fill="none" xmlns="http://www.w3.org/2000/svg">
<path fill-rule="evenodd" clip-rule="evenodd" d="M14.9135 8.53251C12.6231 6.60816 9.19157 6.92248 7.24907 9.23455C5.30656 11.5466 5.58863 14.9809 7.87909 16.9053C10.1695 18.8296 13.601 18.5153 15.5436 16.2032C16.0679 15.5791 16.4296 14.8745 16.6339 14.1404C16.7147 13.8499 17.0147 13.6779 17.304 13.7562C17.5932 13.8345 17.7622 14.1334 17.6813 14.4239C17.4356 15.3066 17.0008 16.1528 16.373 16.9001C14.042 19.6746 9.9242 20.0518 7.17564 17.7425C4.42709 15.4333 4.08861 11.3122 6.41962 8.53768C8.75063 5.76319 12.8684 5.38602 15.617 7.69524L14.9135 8.53251Z" fill="currentColor"/>
<path d="M13.8821 9.76016L16.6484 6.46759C16.7975 6.29012 17.084 6.36545 17.1236 6.59254L17.6975 9.88307C17.7267 10.0503 17.5971 10.2046 17.4273 10.2047L14.0871 10.2067C13.8566 10.2069 13.733 9.93763 13.8821 9.76016Z" fill="currentColor"/>
</svg>
