<svg width="106" height="12" viewBox="0 0 106 12" fill="currentColor" xmlns="http://www.w3.org/2000/svg">
<path d="M66.5663 11.6776C66.53 11.6434 66.5767 11.1696 66.5948 11.0474C67.0303 8.15062 68.0647 3.93243 68.8736 1.07226C68.9643 0.752292 68.9669 0.229597 69.405 0.258907C71.7901 0.571547 78.4708 -0.659473 79.71 1.77814C80.2051 2.7527 79.8422 3.87625 79.1215 4.66029C78.8934 4.90943 77.8512 5.59333 77.8331 5.66904C77.802 5.80094 78.6056 6.25036 78.7975 6.47507C80.8429 8.88337 77.2238 11.6776 74.6677 11.6776H66.5689H66.5663ZM72.1452 4.609C72.2386 4.6896 74.3021 4.609 74.6651 4.609C75.321 4.609 75.9095 3.65887 75.4428 3.21922C75.1499 2.94321 73.2937 2.93589 72.8348 2.98718C72.643 3.00916 72.5937 2.98474 72.4822 3.1606C72.4097 3.27295 72.0856 4.55771 72.1426 4.609H72.1452ZM71.339 9.05191C71.6838 9.15205 73.3922 9.05191 73.9133 9.05191C74.9736 9.05191 75.7332 7.60595 74.7118 7.29086C74.4732 7.21759 71.6216 7.13454 71.5049 7.23957C71.4479 7.29086 71.1808 8.6318 71.1808 8.7124C71.1808 8.83697 71.1938 9.01038 71.339 9.05191Z" fill="currentColor"/>
<path d="M35.5684 0.26379C35.7213 0.407898 34.6973 3.77122 34.8192 4.30369L39.6982 0.26379H43.8279C43.872 0.593528 43.5246 0.81091 43.2939 1.02341C42.651 1.61205 38.2671 4.98758 38.1971 5.30267C38.0883 5.79361 41.461 10.7348 41.684 11.6776H36.9657L34.871 8.03827C34.6818 8.00651 33.79 8.68309 33.7018 8.8565C33.5359 9.18624 33.1393 11.68 32.9448 11.68H29.0302L31.5994 0.26379C32.0945 0.363933 35.4284 0.131895 35.5684 0.26379Z" fill="currentColor"/>
<path d="M53.6948 4.50641C53.8011 4.59923 53.1763 7.11012 53.0596 7.19072C52.7278 7.41543 48.9532 7.06371 48.108 7.27865C47.7036 7.38123 47.5896 8.85162 47.6881 8.85162H53.6948C53.4848 9.10075 53.2048 11.68 53.0518 11.68H42.8609L45.5986 0.26379H55.144C55.1828 0.26379 55.271 0.376145 55.2891 0.432323C55.3669 0.661918 54.8173 3.05313 54.6643 3.14594C54.2236 3.4195 49.7983 3.02626 48.9376 3.207C48.8443 3.23631 48.5643 4.16446 48.5643 4.27437C48.5643 4.35986 48.6395 4.50641 48.7095 4.50641C49.3654 4.50641 53.5159 4.34521 53.6974 4.50641H53.6948Z" fill="currentColor"/>
<path d="M78.5797 11.6776L86.4011 0.407898C86.5022 0.288215 86.6318 0.278445 86.7796 0.258905C87.8555 0.12701 89.2191 0.373703 90.3287 0.258905L93.1674 11.68H88.9832C88.8847 11.68 88.7939 10.0411 88.6669 9.82618C88.5554 9.63322 84.6019 9.82618 84.0135 9.77733C83.7283 9.95319 82.8339 11.68 82.7095 11.68H78.5797V11.6776ZM86.0356 6.93181C86.3467 7.01486 87.5314 6.93181 87.9669 6.93181C88.0343 6.93181 88.1043 6.79992 88.1069 6.70466C88.1303 6.06717 87.6895 4.88744 87.591 4.20598C87.2981 4.61144 85.9396 6.36271 85.8852 6.69245C85.8697 6.78771 85.9656 6.91472 86.0356 6.93426V6.93181Z" fill="currentColor"/>
<path d="M25.2349 -2.76539e-05C26.5622 0.00974235 28.0451 0.361462 29.0769 1.17481C29.3232 1.37021 30.1113 2.08831 29.9454 2.38385C29.8598 2.53529 27.2207 4.41113 27.0392 4.41113C26.8966 4.41113 26.4119 3.77608 26.1656 3.61243C24.4649 2.48399 22.0332 3.53183 21.2814 5.24158C20.1926 7.71827 22.0125 9.65517 24.7008 8.56338C25.0767 8.41194 26.1967 7.55462 26.2926 7.56195C26.4326 7.57172 28.0632 9.32544 28.1747 9.5013C28.4055 9.86279 27.8299 10.1828 27.5162 10.4075C22.6139 13.9222 14.4114 11.4406 17.315 4.74086C18.6008 1.77323 21.8725 -0.0268952 25.2349 -2.76539e-05Z" fill="currentColor"/>
<path d="M97.082 0.26379C97.4812 0.373703 98.5778 4.1034 98.7982 4.1034C98.9641 4.1034 99.0185 3.99593 99.1196 3.90067C99.6018 3.4537 102.052 0.26379 102.337 0.26379H105.876C106.262 0.26379 105.611 0.972115 105.541 1.06005C103.794 3.29005 101.704 5.29046 99.9855 7.54488C99.7626 8.00407 99.13 11.6751 98.9019 11.6751H94.8784L95.822 7.5058L92.9678 0.588643C92.8926 0.481173 93.0352 0.258905 93.1104 0.258905H97.0794L97.082 0.26379Z" fill="currentColor"/>
<path d="M11.7023 0.26379C11.7542 0.278445 11.8319 0.376145 11.8501 0.432323C11.8967 0.571545 11.3342 3.20212 11.2046 3.28028C10.9194 3.45369 7.8266 3.13128 7.66587 3.35355L5.74746 11.6776H1.67472L3.47647 3.61734C3.54388 3.51231 3.41425 3.29493 3.33648 3.29493H0.119253C0.0440716 3.29493 0 3.17281 0 3.08732C0.00259245 2.8333 0.606633 0.26379 0.76218 0.26379H11.7023Z" fill="currentColor"/>
<path d="M61.848 11.6776H57.7727L59.4889 3.29493H56.2172C56.0928 3.29493 56.0721 3.08244 56.0773 2.97008C56.0902 2.70873 56.518 0.815796 56.6191 0.542236C56.6502 0.461633 56.8083 0.266233 56.8602 0.266233H67.8003C67.9247 0.266233 67.9455 0.478731 67.9403 0.591086C67.9299 0.849991 67.3337 3.17281 67.2144 3.24853C66.8255 3.49278 63.9661 3.08732 63.7224 3.39263L61.848 11.6776Z" fill="currentColor"/>
<path d="M17.0116 0.26379L14.5462 11.6776H10.4683L13.0426 0.26379H17.0116Z" fill="currentColor"/>
</svg>
