<svg width="29" height="27" viewBox="0 0 29 27" fill="none" xmlns="http://www.w3.org/2000/svg">
<path d="M0.699951 10V5.5C0.699951 5.22386 0.923808 5 1.19995 5H27.7C27.9761 5 28.2 5.22386 28.2 5.5V9.56635C28.2 9.81518 28.0169 10.024 27.7754 10.0842C26.5464 10.3907 24.7 11.365 24.7 13.5C24.7 15.635 26.5464 16.6093 27.7754 16.9158C28.0169 16.976 28.2 17.1848 28.2 17.4336V21.5C28.2 21.7761 27.9761 22 27.7 22H1.19995C0.923809 22 0.699951 21.7761 0.699951 21.5V17.4336C0.699951 17.1848 0.883021 16.976 1.12445 16.9158C2.35353 16.6093 4.19995 15.635 4.19995 13.5C4.19995 11.4075 2.42618 10.6833 1.19843 10.5321C0.924355 10.4983 0.699951 10.2761 0.699951 10Z" stroke="currentColor" stroke-width="1.4"/>
<path d="M17.5203 8.53516L12.2439 18.7285L11.2898 18.5205L16.5671 8.32715L17.5203 8.53516ZM18.0779 12C18.5719 12.0001 18.9968 12.125 19.3523 12.374C19.7078 12.6231 19.9799 12.985 20.1687 13.459C20.3594 13.9329 20.4548 14.5051 20.4548 15.1758C20.4548 15.8508 20.3595 16.4281 20.1687 16.9062C19.9799 17.3822 19.7078 17.746 19.3523 17.9971C18.9988 18.2481 18.5739 18.373 18.0779 18.373C17.5817 18.373 17.1551 18.2482 16.7996 17.9971C16.4461 17.744 16.174 17.3792 15.9832 16.9033C15.7943 16.4252 15.7 15.8488 15.7 15.1758C15.702 14.5032 15.7974 13.9309 15.9861 13.459C16.1769 12.985 16.4491 12.6231 16.8025 12.374C17.1581 12.1249 17.5837 12 18.0779 12ZM18.0779 12.9316C17.6942 12.9316 17.3907 13.1222 17.1677 13.5039C16.9448 13.8835 16.8319 14.4407 16.8298 15.1758C16.8278 15.668 16.8768 16.0825 16.9773 16.418C17.0797 16.7534 17.2251 17.006 17.4119 17.1768C17.5987 17.3455 17.8207 17.4307 18.0779 17.4307C18.4634 17.4305 18.768 17.2399 18.991 16.8604C19.2158 16.4787 19.3279 15.9168 19.3279 15.1758C19.3279 14.6858 19.277 14.2738 19.1746 13.9404C19.0721 13.607 18.9268 13.3562 18.74 13.1875C18.5533 13.0169 18.3328 12.9317 18.0779 12.9316ZM11.0779 8C11.5719 8.00006 11.9968 8.12498 12.3523 8.37402C12.7078 8.62313 12.9799 8.98498 13.1687 9.45898C13.3594 9.93293 13.4548 10.5051 13.4548 11.1758C13.4548 11.8508 13.3595 12.4281 13.1687 12.9062C12.9799 13.3822 12.7078 13.746 12.3523 13.9971C11.9988 14.2481 11.5739 14.373 11.0779 14.373C10.5817 14.373 10.1551 14.2482 9.79956 13.9971C9.44609 13.744 9.17399 13.3792 8.98315 12.9033C8.79432 12.4252 8.69995 11.8488 8.69995 11.1758C8.702 10.5032 8.79739 9.93091 8.98608 9.45898C9.17686 8.98505 9.4491 8.62312 9.80249 8.37402C10.1581 8.12492 10.5837 8 11.0779 8ZM11.0779 8.93164C10.6942 8.93164 10.3907 9.12221 10.1677 9.50391C9.94478 9.88353 9.83188 10.4407 9.82983 11.1758C9.82782 11.668 9.87685 12.0825 9.97729 12.418C10.0797 12.7534 10.2251 13.006 10.4119 13.1768C10.5987 13.3455 10.8207 13.4307 11.0779 13.4307C11.4634 13.4305 11.768 13.2399 11.991 12.8604C12.2158 12.4787 12.3279 11.9168 12.3279 11.1758C12.3279 10.6858 12.277 10.2738 12.1746 9.94043C12.0721 9.60704 11.9268 9.35622 11.74 9.1875C11.5533 9.01693 11.3328 8.93172 11.0779 8.93164Z" fill="currentColor"/>
</svg>
