<svg width="20" height="20" viewBox="0 0 20 20" fill="none" xmlns="http://www.w3.org/2000/svg">
<path d="M10.4683 3.24352C10.1746 3.09315 9.82544 3.09315 9.53171 3.24352C7.86042 4.09913 6.60935 4.57946 4.87409 4.87277C4.37665 4.95685 3.99839 5.37877 4.0072 5.8832C4.04174 7.8606 4.20858 9.36845 4.67741 10.7659C5.1159 12.0694 5.7655 13.262 6.59071 14.2788C7.73119 15.6914 8.96976 16.5302 9.68917 16.8714C9.88683 16.9652 10.1132 16.9652 10.3108 16.8714C11.0302 16.5302 12.2688 15.6914 13.4093 14.2788C14.2345 13.262 14.8841 12.0694 15.3226 10.7659C15.7914 9.36845 15.9583 7.8606 15.9928 5.8832C16.0016 5.37877 15.6234 4.95685 15.1259 4.87277C13.3906 4.57946 12.1396 4.09913 10.4683 3.24352Z" fill="currentColor"/>
<g clip-path="url(#clip0_2745_2239)">
<path d="M13.3139 9.71658V11.0142C13.3139 11.2079 12.9301 11.6045 12.7293 11.6479L8.02834 12.6565C7.98259 12.6782 7.82829 12.6666 7.82829 12.6163V9.52446L6.07754 9.8754C6.05117 9.88237 6 9.84286 6 9.82892V8.13079C6 8.09283 6.10235 8.05719 6.13879 8.04557C6.90872 7.7907 8.08339 7.62646 8.91302 7.45216C10.152 7.19108 11.3988 6.96642 12.6332 6.68211C12.9216 6.61316 13.2542 6.7774 13.3062 7.08108C13.3349 7.24919 13.345 8.13466 13.3147 8.29115C13.2961 8.38566 13.2 8.37172 13.1232 8.42052C12.4727 8.83576 12.4083 9.72046 13.3139 9.71658ZM9.5333 9.23163C9.54726 9.25332 9.631 9.26184 9.66434 9.26029C9.88842 9.25022 10.8483 9.06042 11.0522 8.97908C11.2352 8.90548 11.2461 8.67772 10.9902 8.69089C10.7801 8.70174 9.86516 8.89618 9.66356 8.96978C9.55579 9.00929 9.46817 9.12704 9.53408 9.23163H9.5333ZM10.9646 10.0451C10.7553 10.0706 9.80623 10.2604 9.64961 10.334C9.44879 10.4278 9.45732 10.6423 9.76591 10.6106C9.99774 10.5866 10.8375 10.4208 11.0367 10.3425C11.236 10.2643 11.2624 10.0094 10.9646 10.0458V10.0451Z" fill="currentColor"/>
</g>
<defs>
<clipPath id="clip0_2745_2239">
<rect width="7.33333" height="6" fill="currentColor" transform="translate(6 6.66699)"/>
</clipPath>
</defs>
</svg>
