<svg width="14" height="14" viewBox="0 0 14 14" fill="none" xmlns="http://www.w3.org/2000/svg">
<path d="M7.00066 0C5.09955 0 4.86097 0.00831272 4.11429 0.0422922C3.36908 0.0764176 2.8604 0.194398 2.41532 0.367504C1.95492 0.546297 1.56437 0.785467 1.17528 1.1747C0.785904 1.56379 0.546735 1.95433 0.367358 2.41459C0.193814 2.85982 0.0756882 3.36864 0.0421462 4.11356C0.00875003 4.86024 0 5.09897 0 7.00007C0 8.90118 0.00845856 9.13903 0.0422922 9.88571C0.0765634 10.6309 0.194544 11.1396 0.367504 11.5847C0.546443 12.0451 0.785612 12.4356 1.17485 12.8247C1.56379 13.2141 1.95433 13.4538 2.41444 13.6326C2.85982 13.8057 3.36864 13.9237 4.11371 13.9579C4.86038 13.9918 5.09882 14.0001 6.99978 14.0001C8.90103 14.0001 9.13889 13.9918 9.88556 13.9579C10.6308 13.9237 11.14 13.8057 11.5854 13.6326C12.0457 13.4538 12.4356 13.2141 12.8246 12.8247C13.214 12.4356 13.4531 12.0451 13.6325 11.5848C13.8046 11.1396 13.9227 10.6308 13.9577 9.88585C13.9912 9.13918 14 8.90118 14 7.00007C14 5.09897 13.9912 4.86038 13.9577 4.11371C13.9227 3.36849 13.8046 2.85982 13.6325 2.41473C13.4531 1.95433 13.214 1.56379 12.8246 1.1747C12.4352 0.785321 12.0458 0.546152 11.585 0.367504C11.1387 0.194398 10.6298 0.0764176 9.88454 0.0422922C9.13787 0.00831272 8.90016 0 6.99847 0H7.00066ZM6.37269 1.26147C6.55907 1.26118 6.76703 1.26147 7.00066 1.26147C8.86967 1.26147 9.0912 1.26818 9.82927 1.30172C10.5118 1.33293 10.8822 1.44697 11.1289 1.54279C11.4556 1.66966 11.6885 1.82133 11.9334 2.06633C12.1784 2.31134 12.33 2.54467 12.4572 2.87134C12.553 3.1178 12.6672 3.48822 12.6983 4.17073C12.7318 4.90866 12.7391 5.13032 12.7391 6.99847C12.7391 8.86661 12.7318 9.08828 12.6983 9.82621C12.6671 10.5087 12.553 10.8791 12.4572 11.1256C12.3303 11.4523 12.1784 11.6849 11.9334 11.9297C11.6884 12.1747 11.4558 12.3264 11.1289 12.4533C10.8825 12.5495 10.5118 12.6633 9.82927 12.6945C9.09134 12.728 8.86967 12.7353 7.00066 12.7353C5.13149 12.7353 4.90997 12.728 4.17204 12.6945C3.48954 12.663 3.11912 12.5489 2.87222 12.4531C2.54555 12.3263 2.31221 12.1746 2.06721 11.9296C1.82221 11.6846 1.67054 11.4518 1.54337 11.125C1.44756 10.8786 1.33337 10.5081 1.30231 9.82562C1.26876 9.0877 1.26205 8.86603 1.26205 6.99672C1.26205 5.12741 1.26876 4.90691 1.30231 4.16898C1.33351 3.48647 1.44756 3.11605 1.54337 2.8693C1.67025 2.54263 1.82221 2.30929 2.06721 2.06429C2.31221 1.81929 2.54555 1.66762 2.87222 1.54045C3.11897 1.4442 3.48954 1.33045 4.17204 1.2991C4.8178 1.26993 5.06805 1.26118 6.37269 1.25972V1.26147ZM10.7372 2.42377C10.2735 2.42377 9.89723 2.79959 9.89723 3.26349C9.89723 3.72725 10.2735 4.1035 10.7372 4.1035C11.201 4.1035 11.5772 3.72725 11.5772 3.26349C11.5772 2.79974 11.201 2.42348 10.7372 2.42348V2.42377ZM7.00066 3.40524C5.01541 3.40524 3.40583 5.01482 3.40583 7.00007C3.40583 8.98532 5.01541 10.5942 7.00066 10.5942C8.98591 10.5942 10.5949 8.98532 10.5949 7.00007C10.5949 5.01482 8.98576 3.40524 7.00051 3.40524H7.00066ZM7.00066 4.66672C8.28925 4.66672 9.33401 5.71133 9.33401 7.00007C9.33401 8.28867 8.28925 9.33343 7.00066 9.33343C5.71191 9.33343 4.6673 8.28867 4.6673 7.00007C4.6673 5.71133 5.71191 4.66672 7.00066 4.66672Z" fill="white"/>
</svg>
