<svg width="20" height="20" viewBox="0 0 20 20" fill="none" xmlns="http://www.w3.org/2000/svg">
<path d="M10.0002 16.6667C13.6821 16.6667 16.6668 13.6819 16.6668 10C16.6668 6.31814 13.6821 3.33337 10.0002 3.33337C6.31826 3.33337 3.3335 6.31814 3.3335 10C3.3335 13.6819 6.31826 16.6667 10.0002 16.6667Z" fill="#868E96"/>
<path d="M7.5752 7.49999C7.77112 6.94304 8.15782 6.47341 8.66682 6.17426C9.17583 5.87512 9.77427 5.76577 10.3562 5.86558C10.9381 5.96539 11.4659 6.26792 11.8461 6.71959C12.2263 7.17126 12.4344 7.74292 12.4335 8.33332C12.4335 9.99999 9.93353 10.8333 9.93353 10.8333" stroke="white" stroke-width="1.5" stroke-linecap="round" stroke-linejoin="round"/>
<path d="M10 14.1666H10.0068" stroke="white" stroke-width="1.5" stroke-linecap="round" stroke-linejoin="round"/>
</svg>
