<svg width="16" height="16" viewBox="0 0 16 16" fill="white" xmlns="http://www.w3.org/2000/svg">
<path d="M8.46829 1.24352C8.17456 1.09315 7.82544 1.09315 7.53171 1.24352C5.86042 2.09913 4.60935 2.57946 2.87409 2.87277C2.37665 2.95685 1.99839 3.37877 2.0072 3.8832C2.04174 5.8606 2.20858 7.36845 2.67741 8.76594C3.1159 10.0694 3.7655 11.262 4.59071 12.2788C5.73119 13.6914 6.96976 14.5302 7.68917 14.8714C7.88683 14.9652 8.11317 14.9652 8.31083 14.8714C9.03025 14.5302 10.2688 13.6914 11.4093 12.2788C12.2345 11.262 12.8841 10.0694 13.3226 8.76594C13.7914 7.36845 13.9583 5.8606 13.9928 3.8832C14.0016 3.37877 13.6234 2.95685 13.1259 2.87277C11.3906 2.57946 10.1396 2.09913 8.46829 1.24352Z" fill="black"/>
<g clip-path="url(#clip0_3240_8916)">
<path d="M10.9815 8.05008V9.34769C10.9815 9.54137 10.6151 9.93801 10.4234 9.98139L5.93614 10.99C5.89247 11.0117 5.74519 11.0001 5.74519 10.9498V7.85796L4.07401 8.20889C4.04885 8.21587 4 8.17636 4 8.16241V6.46428C4 6.42632 4.0977 6.39069 4.13248 6.37907C4.86741 6.12419 5.98869 5.95996 6.78061 5.78565C7.96331 5.52458 9.15341 5.29992 10.3317 5.01561C10.607 4.94666 10.9245 5.11089 10.9741 5.41457C11.0015 5.58268 11.0111 6.46816 10.9822 6.62465C10.9645 6.71916 10.8727 6.70521 10.7994 6.75402C10.1785 7.16925 10.117 8.05395 10.9815 8.05008ZM7.3727 7.56512C7.38602 7.58681 7.46595 7.59534 7.49778 7.59379C7.71167 7.58372 8.62793 7.39392 8.82258 7.31257C8.99725 7.23898 9.00761 7.01122 8.76337 7.02439C8.5628 7.03523 7.68947 7.22968 7.49704 7.30328C7.39416 7.34279 7.31053 7.46054 7.37344 7.56512H7.3727ZM8.73895 8.37855C8.53912 8.40412 7.63322 8.59392 7.48372 8.66751C7.29203 8.76125 7.30017 8.97584 7.59473 8.94408C7.81603 8.92006 8.61757 8.75428 8.80778 8.67603C8.99799 8.59779 9.02315 8.34292 8.73895 8.37933V8.37855Z" fill="white"/>
</g>
<defs>
<clipPath id="clip0_3240_8916">
<rect width="7" height="6" stroke="black" fill="white" transform="translate(4 5)"/>
</clipPath>
</defs>
</svg>
