<svg width="27" height="27" viewBox="0 0 27 27" fill="none" xmlns="http://www.w3.org/2000/svg">
<path d="M13 13.4118V13.4224M8.55556 13.4118V13.4224M17.4444 13.4118V13.4224M19.6667 6C20.5507 6 21.3986 6.33466 22.0237 6.93037C22.6488 7.52607 23 8.33402 23 9.17647V17.6471C23 18.4895 22.6488 19.2975 22.0237 19.8932C21.3986 20.4889 20.5507 20.8235 19.6667 20.8235H14.1111L8.55556 24V20.8235H6.33333C5.44928 20.8235 4.60143 20.4889 3.97631 19.8932C3.35119 19.2975 3 18.4895 3 17.6471V9.17647C3 8.33402 3.35119 7.52607 3.97631 6.93037C4.60143 6.33466 5.44928 6 6.33333 6H19.6667Z" stroke="currentColor" stroke-width="1.6" stroke-linecap="round" stroke-linejoin="round"/>
<circle cx="22" cy="7" r="4" fill="currentColor"/>
</svg>
