<svg width="27" height="27" viewBox="0 0 27 27" fill="none" xmlns="http://www.w3.org/2000/svg">
<path d="M7.568 15.4903L11.5523 11.5061C12.042 11.0163 11.8976 10.1891 11.2709 9.89416L5.2461 7.05894C4.64853 6.77773 4.48284 6.00476 4.91264 5.50333L6.61106 3.52184C6.8805 3.20749 7.31579 3.09169 7.70582 3.2306L15.9628 6.17131C16.3265 6.30086 16.7324 6.20941 17.0054 5.93638L20.5583 2.38344C21.225 1.71678 22.9583 0.783443 24.5583 2.38344C26.1583 3.98344 25.225 5.71678 24.5583 6.38344L21.0088 9.93297C20.734 10.2078 20.6433 10.6169 20.7762 10.9821L23.8215 19.3493C23.964 19.7408 23.8489 20.1795 23.5326 20.4506L21.555 22.1457C21.0536 22.5755 20.2806 22.4098 19.9994 21.8123L17.1642 15.7874C16.8693 15.1607 16.042 15.0163 15.5523 15.5061L11.5435 19.5148C11.2512 19.8072 11.1689 20.2493 11.3364 20.6272L12.2886 22.775C12.452 23.1436 12.3781 23.5742 12.1013 23.8672L11.245 24.7733C10.8657 25.1747 10.233 25.1927 9.83152 24.8136L2.30643 17.7065C1.89678 17.3196 1.88751 16.6708 2.28595 16.2724L3.5487 15.0097C3.85306 14.7053 4.31803 14.6298 4.70302 14.8223L6.41368 15.6777C6.79867 15.8702 7.26364 15.7947 7.568 15.4903Z" stroke="currentColor" stroke-width="1.4"/>
</svg>
