<svg width="77" height="17" viewBox="0 0 77 17" fill="none" xmlns="http://www.w3.org/2000/svg">
<path d="M8.49999 12.2364L5.56041 14.0072C5.43054 14.0899 5.29478 14.1253 5.15311 14.1135C5.01145 14.1017 4.88749 14.0544 4.78124 13.9718C4.67499 13.8892 4.59235 13.786 4.53332 13.6623C4.47429 13.5385 4.46249 13.3997 4.49791 13.2458L5.27707 9.89889L2.67395 7.64994C2.55589 7.54368 2.48222 7.42256 2.45295 7.28656C2.42367 7.15056 2.43241 7.01787 2.47916 6.88848C2.52591 6.75909 2.59674 6.65284 2.69166 6.56973C2.78657 6.48662 2.91643 6.43349 3.08124 6.41035L6.51666 6.10931L7.84478 2.95723C7.90381 2.81556 7.99542 2.70931 8.11961 2.63848C8.24381 2.56764 8.3706 2.53223 8.49999 2.53223C8.62938 2.53223 8.75617 2.56764 8.88036 2.63848C9.00456 2.70931 9.09617 2.81556 9.1552 2.95723L10.4833 6.10931L13.9187 6.41035C14.084 6.43396 14.2139 6.48709 14.3083 6.56973C14.4028 6.65237 14.4736 6.75862 14.5208 6.88848C14.568 7.01834 14.577 7.15127 14.5477 7.28727C14.5185 7.42327 14.4446 7.54416 14.326 7.64994L11.7229 9.89889L12.5021 13.2458C12.5375 13.3992 12.5257 13.5381 12.4667 13.6623C12.4076 13.7865 12.325 13.8896 12.2187 13.9718C12.1125 14.054 11.9885 14.1012 11.8469 14.1135C11.7052 14.1258 11.5694 14.0903 11.4396 14.0072L8.49999 12.2364Z" fill="#FFBE00"/>
<path d="M23.5 12.2364L20.5604 14.0072C20.4305 14.0899 20.2948 14.1253 20.1531 14.1135C20.0114 14.1017 19.8875 14.0544 19.7812 13.9718C19.675 13.8892 19.5923 13.786 19.5333 13.6623C19.4743 13.5385 19.4625 13.3997 19.4979 13.2458L20.2771 9.89889L17.6739 7.64994C17.5559 7.54368 17.4822 7.42256 17.4529 7.28656C17.4237 7.15056 17.4324 7.01787 17.4792 6.88848C17.5259 6.75909 17.5967 6.65284 17.6917 6.56973C17.7866 6.48662 17.9164 6.43349 18.0812 6.41035L21.5167 6.10931L22.8448 2.95723C22.9038 2.81556 22.9954 2.70931 23.1196 2.63848C23.2438 2.56764 23.3706 2.53223 23.5 2.53223C23.6294 2.53223 23.7562 2.56764 23.8804 2.63848C24.0046 2.70931 24.0962 2.81556 24.1552 2.95723L25.4833 6.10931L28.9187 6.41035C29.084 6.43396 29.2139 6.48709 29.3083 6.56973C29.4028 6.65237 29.4736 6.75862 29.5208 6.88848C29.568 7.01834 29.577 7.15127 29.5477 7.28727C29.5185 7.42327 29.4446 7.54416 29.326 7.64994L26.7229 9.89889L27.5021 13.2458C27.5375 13.3992 27.5257 13.5381 27.4667 13.6623C27.4076 13.7865 27.325 13.8896 27.2187 13.9718C27.1125 14.054 26.9885 14.1012 26.8469 14.1135C26.7052 14.1258 26.5694 14.0903 26.4396 14.0072L23.5 12.2364Z" fill="#FFBE00"/>
<path d="M38.5 12.2364L35.5604 14.0072C35.4305 14.0899 35.2948 14.1253 35.1531 14.1135C35.0114 14.1017 34.8875 14.0544 34.7812 13.9718C34.675 13.8892 34.5923 13.786 34.5333 13.6623C34.4743 13.5385 34.4625 13.3997 34.4979 13.2458L35.2771 9.89889L32.6739 7.64994C32.5559 7.54368 32.4822 7.42256 32.4529 7.28656C32.4237 7.15056 32.4324 7.01787 32.4792 6.88848C32.5259 6.75909 32.5967 6.65284 32.6917 6.56973C32.7866 6.48662 32.9164 6.43349 33.0812 6.41035L36.5167 6.10931L37.8448 2.95723C37.9038 2.81556 37.9954 2.70931 38.1196 2.63848C38.2438 2.56764 38.3706 2.53223 38.5 2.53223C38.6294 2.53223 38.7562 2.56764 38.8804 2.63848C39.0046 2.70931 39.0962 2.81556 39.1552 2.95723L40.4833 6.10931L43.9187 6.41035C44.084 6.43396 44.2139 6.48709 44.3083 6.56973C44.4028 6.65237 44.4736 6.75862 44.5208 6.88848C44.568 7.01834 44.577 7.15127 44.5477 7.28727C44.5185 7.42327 44.4446 7.54416 44.326 7.64994L41.7229 9.89889L42.5021 13.2458C42.5375 13.3992 42.5257 13.5381 42.4667 13.6623C42.4076 13.7865 42.325 13.8896 42.2187 13.9718C42.1125 14.054 41.9885 14.1012 41.8469 14.1135C41.7052 14.1258 41.5694 14.0903 41.4396 14.0072L38.5 12.2364Z" fill="#FFBE00"/>
<path d="M53.5 12.2364L50.5604 14.0072C50.4305 14.0899 50.2948 14.1253 50.1531 14.1135C50.0114 14.1017 49.8875 14.0544 49.7812 13.9718C49.675 13.8892 49.5923 13.786 49.5333 13.6623C49.4743 13.5385 49.4625 13.3997 49.4979 13.2458L50.2771 9.89889L47.6739 7.64994C47.5559 7.54368 47.4822 7.42256 47.4529 7.28656C47.4237 7.15056 47.4324 7.01787 47.4792 6.88848C47.5259 6.75909 47.5967 6.65284 47.6917 6.56973C47.7866 6.48662 47.9164 6.43349 48.0812 6.41035L51.5167 6.10931L52.8448 2.95723C52.9038 2.81556 52.9954 2.70931 53.1196 2.63848C53.2438 2.56764 53.3706 2.53223 53.5 2.53223C53.6294 2.53223 53.7562 2.56764 53.8804 2.63848C54.0046 2.70931 54.0962 2.81556 54.1552 2.95723L55.4833 6.10931L58.9187 6.41035C59.084 6.43396 59.2139 6.48709 59.3083 6.56973C59.4028 6.65237 59.4736 6.75862 59.5208 6.88848C59.568 7.01834 59.577 7.15127 59.5477 7.28727C59.5185 7.42327 59.4446 7.54416 59.326 7.64994L56.7229 9.89889L57.5021 13.2458C57.5375 13.3992 57.5257 13.5381 57.4667 13.6623C57.4076 13.7865 57.325 13.8896 57.2187 13.9718C57.1125 14.054 56.9885 14.1012 56.8469 14.1135C56.7052 14.1258 56.5694 14.0903 56.4396 14.0072L53.5 12.2364Z" fill="#FFBE00"/>
<path d="M68.5 12.2364L65.5604 14.0072C65.4305 14.0899 65.2948 14.1253 65.1531 14.1135C65.0114 14.1017 64.8875 14.0544 64.7812 13.9718C64.675 13.8892 64.5923 13.786 64.5333 13.6623C64.4743 13.5385 64.4625 13.3997 64.4979 13.2458L65.2771 9.89889L62.6739 7.64994C62.5559 7.54368 62.4822 7.42256 62.4529 7.28656C62.4237 7.15056 62.4324 7.01787 62.4792 6.88848C62.5259 6.75909 62.5967 6.65284 62.6917 6.56973C62.7866 6.48662 62.9164 6.43349 63.0812 6.41035L66.5167 6.10931L67.8448 2.95723C67.9038 2.81556 67.9954 2.70931 68.1196 2.63848C68.2438 2.56764 68.3706 2.53223 68.5 2.53223C68.6294 2.53223 68.7562 2.56764 68.8804 2.63848C69.0046 2.70931 69.0962 2.81556 69.1552 2.95723L70.4833 6.10931L73.9187 6.41035C74.084 6.43396 74.2139 6.48709 74.3083 6.56973C74.4028 6.65237 74.4736 6.75862 74.5208 6.88848C74.568 7.01834 74.577 7.15127 74.5477 7.28727C74.5185 7.42327 74.4446 7.54416 74.326 7.64994L71.7229 9.89889L72.5021 13.2458C72.5375 13.3992 72.5257 13.5381 72.4667 13.6623C72.4076 13.7865 72.325 13.8896 72.2187 13.9718C72.1125 14.054 71.9885 14.1012 71.8469 14.1135C71.7052 14.1258 71.5694 14.0903 71.4396 14.0072L68.5 12.2364Z" fill="#FFBE00"/>
</svg>
