<svg width="27" height="27" viewBox="0 0 27 27" fill="none" xmlns="http://www.w3.org/2000/svg">
<path d="M2.72217 3.7998H2.94527C4.37224 3.7998 5.08681 3.7998 5.55241 4.23307C6.01801 4.66634 6.06866 5.37875 6.16998 6.80249L6.4405 10.5952C6.59354 12.7389 6.67006 13.8102 6.99555 14.681C7.34658 15.6227 7.91226 16.4696 8.64769 17.1545C9.38312 17.8394 10.2681 18.3435 11.2323 18.6268C12.1247 18.8887 13.2046 18.8887 15.3666 18.8887C17.6354 18.8887 18.7703 18.8887 19.6885 18.6106C20.7062 18.3019 21.632 17.747 22.384 16.995C23.136 16.243 23.6909 15.3172 23.9996 14.2995C24.2152 13.5849 24.2637 12.7443 24.2745 11.3442M13.4999 7.03313H6.49439M11.8833 22.3915C11.8833 22.6058 11.7981 22.8114 11.6465 22.963C11.4949 23.1146 11.2893 23.1998 11.0749 23.1998C10.8606 23.1998 10.655 23.1146 10.5034 22.963C10.3518 22.8114 10.2666 22.6058 10.2666 22.3915C10.2666 22.1771 10.3518 21.9715 10.5034 21.8199C10.655 21.6683 10.8606 21.5831 11.0749 21.5831C11.2893 21.5831 11.4949 21.6683 11.6465 21.8199C11.7981 21.9715 11.8833 22.1771 11.8833 22.3915ZM21.0444 22.3915C21.0444 22.6058 20.9592 22.8114 20.8076 22.963C20.656 23.1146 20.4504 23.1998 20.236 23.1998C20.0217 23.1998 19.8161 23.1146 19.6645 22.963C19.5129 22.8114 19.4277 22.6058 19.4277 22.3915C19.4277 22.1771 19.5129 21.9715 19.6645 21.8199C19.8161 21.6683 20.0217 21.5831 20.236 21.5831C20.4504 21.5831 20.656 21.6683 20.8076 21.8199C20.9592 21.9715 21.0444 22.1771 21.0444 22.3915Z" stroke="currentColor" stroke-width="2" stroke-linecap="round" stroke-linejoin="round"/>
<path d="M20.5056 10.2665C20.5056 10.2665 16.7334 7.98373 16.7334 5.77537C16.7334 4.68466 17.5277 3.7998 18.6195 3.7998C19.1853 3.7998 19.7512 3.98949 20.5056 4.7504C21.2601 3.98949 21.8259 3.7998 22.3917 3.7998C23.4835 3.7998 24.2778 4.68358 24.2778 5.77537C24.2778 7.98481 20.5056 10.2665 20.5056 10.2665Z" stroke="currentColor" stroke-width="2" stroke-linecap="round" stroke-linejoin="round"/>
</svg>
