<svg width="24" height="24" viewBox="0 0 24 24" fill="none" xmlns="http://www.w3.org/2000/svg">
<path d="M16.624 4.93652C16.797 4.59102 17.2178 4.4512 17.5635 4.62402C18.8488 5.26697 20.9502 7.64381 20.9502 12.25C20.9502 16.8531 18.8404 18.9576 17.4717 19.4141C17.1051 19.5362 16.7083 19.3382 16.5859 18.9717C16.4637 18.605 16.6618 18.2083 17.0283 18.0859C17.6596 17.8755 19.5498 16.4463 19.5498 12.25C19.5498 8.05682 17.6513 6.23342 16.9365 5.87598C16.5911 5.70298 16.4513 5.28216 16.624 4.93652ZM10.5615 5.22754C11.3568 4.67088 12.4499 5.23936 12.4502 6.20996V17.79C12.4498 18.7605 11.3567 19.329 10.5615 18.7725L6.5293 15.9502H4.25C3.5873 15.9502 3.04988 15.4127 3.0498 14.75V9.25C3.0498 8.58726 3.58726 8.0498 4.25 8.0498H6.5293L10.5615 5.22754ZM7.28027 9.2334C7.07876 9.37434 6.83869 9.45012 6.59277 9.4502H4.4502V14.5498H6.59277C6.83871 14.5499 7.07875 14.6256 7.28027 14.7666L11.0498 17.4053V6.59375L7.28027 9.2334ZM14.624 6.93652C14.797 6.59102 15.2178 6.4512 15.5635 6.62402C16.5024 7.09378 17.9502 8.727 17.9502 11.75C17.9502 14.773 16.5024 16.4063 15.5635 16.876C15.2179 17.0487 14.7971 16.9089 14.624 16.5635C14.4512 16.2178 14.5911 15.7971 14.9365 15.624C15.3309 15.4268 16.5498 14.3264 16.5498 11.75C16.5498 9.17359 15.331 8.07326 14.9365 7.87598C14.5911 7.70298 14.4513 7.28216 14.624 6.93652Z" fill="currentColor"/>
</svg>
