<svg width="24" height="24" viewBox="0 0 24 24" fill="none" xmlns="http://www.w3.org/2000/svg">
<path d="M10.7761 4C14.5185 4.00015 17.5525 7.03394 17.5525 10.7764C17.5524 12.3223 17.0323 13.7456 16.1609 14.8857L19.7361 18.4619C20.088 18.8139 20.0881 19.3843 19.7361 19.7363C19.3841 20.0883 18.8137 20.0882 18.4617 19.7363L14.8855 16.1611C13.7453 17.0326 12.322 17.5527 10.7761 17.5527C7.03371 17.5527 3.99993 14.5187 3.99976 10.7764C3.99979 7.03387 7.03363 4.00004 10.7761 4ZM10.7761 5.80273C8.0293 5.80278 5.80253 8.02956 5.80249 10.7764C5.80266 13.5231 8.02939 15.75 10.7761 15.75C13.5228 15.7499 15.7496 13.523 15.7498 10.7764C15.7497 8.02962 13.5229 5.80288 10.7761 5.80273Z" fill="currentColor"/>
</svg>
