<svg width="27" height="27" viewBox="0 0 27 27" fill="none" xmlns="http://www.w3.org/2000/svg">
<path d="M11.4561 11.9951L5.45605 17.9951C4.77044 18.6808 4.51645 20.5654 5.95605 22.0049C6.53042 22.5792 7.31408 22.7917 8.10156 22.7393C8.90671 22.6856 9.60947 22.3612 9.96582 22.0049L15.9658 16.0049L16.9561 16.9951L10.9561 22.9951C10.3125 23.6387 9.26504 24.0644 8.19531 24.1357C7.29627 24.1957 6.30976 24.0084 5.47168 23.4189L1.92188 26.5264L1 25.4736L4.47656 22.4307C3.09283 20.5796 3.27655 18.1942 4.46582 17.0049L10.4658 11.0049L11.4561 11.9951ZM18.9609 1C22.8269 1 25.9609 4.13401 25.9609 8C25.9609 11.866 22.8269 15 18.9609 15C15.0949 15 11.9609 11.866 11.9609 8C11.9609 4.13401 15.0949 1 18.9609 1ZM18.9609 2.40039C15.8681 2.40039 13.3613 4.90721 13.3613 8C13.3613 11.0928 15.8681 13.5996 18.9609 13.5996C22.0537 13.5996 24.5605 11.0928 24.5605 8C24.5605 4.90721 22.0537 2.40039 18.9609 2.40039Z" fill="currentColor"/>
</svg>
